<svg width="92" height="94" viewBox="0 0 92 94" fill="none" xmlns="http://www.w3.org/2000/svg">
<g filter="url(#filter0_f_1142_3365)">
<path d="M78.9556 47.0488C77.8381 45.3685 76.3094 44.1224 74.5701 43.0795C74.532 43.0618 74.5218 43.0338 74.4837 43.0161C67.3812 36.9685 60.2051 30.9792 53.0569 24.9798C48.3515 21.0006 43.5827 17.1076 38.9407 13.042C32.7879 7.6922 23.2531 9.64473 19.7214 16.9699C18.8308 18.7803 18.4988 20.7352 18.469 22.7382C18.4538 22.8702 18.4005 22.9845 18.3853 23.1165C16.3248 34.7444 14.2922 46.3621 12.2596 57.9797C11.7628 60.7852 11.294 63.5804 10.787 66.3579C10.7262 66.5382 10.683 66.6803 10.744 66.8479L10.7263 66.886C10.6021 67.5004 10.4296 68.0691 10.3333 68.6733C10.3155 68.7114 10.3079 68.7774 10.3181 68.8053C10.3283 68.8333 10.3105 68.8713 10.3105 68.8713C9.93796 71.0624 10.1087 73.1821 10.8785 75.2103C10.9293 75.3499 10.9801 75.4895 11.0589 75.619C11.069 75.6469 11.069 75.6469 11.0792 75.6748C11.5517 76.7993 12.1816 77.8349 12.9207 78.736C12.9689 78.7816 12.9892 78.8375 13.0375 78.8832C13.0857 78.9289 13.134 78.9745 13.1543 79.0304C16.2399 82.5557 21.0385 84.0978 25.7017 82.7484C26.2424 82.5832 26.745 82.4003 27.2374 82.1895C36.6398 78.8305 46.0294 75.3497 55.4012 71.907C60.9579 69.8846 66.4561 67.7885 72.0432 65.8499C72.6397 65.6644 73.254 65.4408 73.848 65.1613C80.7676 62.1052 83.3316 53.4247 78.9556 47.0488Z" fill="#29293D" fill-opacity="0.5"/>
</g>
<g filter="url(#filter1_f_1142_3365)">
<path d="M61.7657 45.0594C61.1205 44.0894 60.238 43.37 59.2339 42.768C59.1965 42.7505 59.1682 42.7178 59.1368 42.6911C55.0519 39.2134 50.9251 35.7691 46.8143 32.319C44.0979 30.0217 41.3448 27.7743 38.665 25.4272C35.1129 22.3388 29.6085 23.466 27.5696 27.6948C27.0555 28.74 26.8638 29.8685 26.8466 31.0249C26.8378 31.1011 26.8071 31.1671 26.7983 31.2433C25.6087 37.9561 24.4353 44.663 23.2619 51.3699C22.9776 52.9751 22.7092 54.5746 22.4196 56.164C22.4144 56.1924 22.407 56.2203 22.3982 56.2478C22.373 56.3271 22.3587 56.3954 22.3811 56.4716C22.3845 56.4832 22.3841 56.4957 22.379 56.5066C22.3775 56.5099 22.3764 56.5133 22.3756 56.5168C22.3093 56.8433 22.2197 57.1476 22.1628 57.4664C22.1538 57.5174 22.1234 57.5709 22.1411 57.6196C22.15 57.644 22.1344 57.6707 22.1302 57.6964C21.9237 58.9475 22.0247 60.1582 22.4646 61.3172C22.4901 61.3872 22.5156 61.4572 22.5516 61.5234C22.5625 61.5434 22.5727 61.5639 22.5805 61.5853C22.8533 62.2345 23.2169 62.8324 23.6435 63.3525C23.6714 63.3789 23.6831 63.4112 23.711 63.4375C23.7635 63.4873 23.8028 63.5507 23.8512 63.6045C25.6347 65.5815 28.3664 66.4374 31.022 65.6689C31.3342 65.5736 31.6243 65.468 31.9086 65.3463C37.3366 63.4071 42.7573 61.3977 48.1677 59.4102C51.3756 58.2426 54.5497 57.0326 57.7751 55.9134C58.1195 55.8063 58.4742 55.6772 58.8171 55.5159C62.8118 53.7516 64.292 48.7403 61.7657 45.0594Z" fill="#29293D"/>
</g>
<path d="M27.7795 20.366C28.3981 18.7421 29.2487 17.2472 30.5117 16.0357C35.5636 11.1127 43.9148 12.3499 47.3429 18.5359C49.9204 23.227 52.6526 27.815 55.3075 32.4546C59.7408 40.1614 64.2257 47.8682 68.6075 55.6008C72.2934 62.0704 68.2982 70.2411 60.978 71.3495C56.4931 72.0196 52.2918 69.9576 49.972 65.9367C46.0799 59.1578 42.1621 52.3789 38.27 45.6257C38.1927 45.4711 38.0896 45.3422 37.9865 45.2133C37.5741 44.8783 37.3937 44.3885 37.1359 43.9504C35.409 40.9089 33.6305 37.8932 31.9035 34.8775C30.7952 32.9185 29.6353 30.9854 28.527 29.0265C27.5217 27.2738 27.0578 25.3664 27.1093 23.3559C27.1867 22.3249 27.3155 21.2939 27.7795 20.366Z" fill="#3C8BD9"/>
<path d="M27.7807 20.366C27.5487 21.2939 27.3425 22.2218 27.291 23.2012C27.2136 25.3664 27.7549 27.3768 28.8375 29.2584C31.6728 34.13 34.5081 39.0273 37.3176 43.9246C37.5753 44.3627 37.7815 44.8009 38.0393 45.2133C36.4928 47.894 34.9462 50.5488 33.3739 53.2294C31.2088 56.9669 29.0437 60.73 26.8528 64.4675C26.7497 64.4675 26.7239 64.4159 26.6981 64.3386C26.6724 64.1324 26.7497 63.952 26.8012 63.7458C27.858 59.8795 26.9817 56.4513 24.3268 53.513C22.703 51.7345 20.641 50.7292 18.2696 50.3942C15.1766 49.956 12.4444 50.755 9.99577 52.6882C9.55759 53.0232 9.27406 53.513 8.75855 53.7707C8.65545 53.7707 8.6039 53.7192 8.57812 53.6418C9.81534 51.5025 11.0268 49.3632 12.264 47.2238C17.3675 38.3571 22.471 29.4904 27.6003 20.6495C27.6518 20.5464 27.7292 20.4691 27.7807 20.366Z" fill="#FABC04"/>
<path d="M8.68006 53.7192C9.16979 53.281 9.63374 52.8171 10.1492 52.4047C16.4126 47.4558 25.8206 51.0386 27.1867 58.8743C27.5218 60.7559 27.3414 62.5601 26.7743 64.3644C26.7485 64.519 26.7227 64.6479 26.6712 64.8026C26.4392 65.215 26.233 65.6532 25.9753 66.0656C23.6813 69.8545 20.3047 71.7361 15.8714 71.4526C10.7936 71.0917 6.79846 67.277 6.10253 62.225C5.76745 59.7764 6.25718 57.4824 7.52017 55.3688C7.77792 54.9049 8.08723 54.4925 8.37075 54.0285C8.49963 53.9254 8.44808 53.7192 8.68006 53.7192Z" fill="#34A852"/>
<path d="M8.67816 53.7192C8.57506 53.8223 8.57506 54.0027 8.39463 54.0285C8.36886 53.8481 8.47196 53.745 8.57506 53.6161L8.67816 53.7192Z" fill="#FABC04"/>
<path d="M26.6716 64.8026C26.5685 64.6221 26.6716 64.4933 26.7747 64.3644C26.8005 64.3902 26.852 64.4417 26.8778 64.4675L26.6716 64.8026Z" fill="#E1C025"/>
<g filter="url(#filter2_bd_1142_3365)">
<path d="M68.6076 55.598C64.2258 47.8654 59.7409 40.1586 55.3075 32.4518C52.6527 27.8122 49.9205 23.2242 47.343 18.5331C43.9149 12.3471 35.5637 11.1099 30.5117 16.0329C29.2487 17.2444 28.3981 18.7393 27.7795 20.3632C27.728 20.4663 27.6507 20.5436 27.5991 20.6467C22.4698 29.4876 17.3663 38.3543 12.2628 47.221C10.686 49.9476 9.03543 52.6385 7.52017 55.366C6.25718 57.4796 5.76745 59.7736 6.10253 62.2222C6.79846 67.2742 10.7936 71.0889 15.8714 71.4498C20.3047 71.7333 23.6813 69.8517 25.9753 66.0627C28.5706 61.9101 30.904 57.4881 33.3728 53.2267C34.9451 50.546 38.0123 45.2363 38.0123 45.2363C38.0123 45.2363 46.1489 59.275 49.972 65.9339C52.2918 69.9548 56.4932 72.0168 60.9781 71.3467C68.2983 70.2383 72.2934 62.0676 68.6076 55.598Z" stroke="url(#paint0_linear_1142_3365)" stroke-opacity="0.7" stroke-linecap="round" stroke-linejoin="round"/>
</g>
<defs>
<filter id="filter0_f_1142_3365" x="0.121094" y="0" width="90.9922" height="93.233" filterUnits="userSpaceOnUse" color-interpolation-filters="sRGB">
<feFlood flood-opacity="0" result="BackgroundImageFix"/>
<feBlend mode="normal" in="SourceGraphic" in2="BackgroundImageFix" result="shape"/>
<feGaussianBlur stdDeviation="5" result="effect1_foregroundBlur_1142_3365"/>
</filter>
<filter id="filter1_f_1142_3365" x="12.0273" y="13.6711" width="60.9844" height="62.2776" filterUnits="userSpaceOnUse" color-interpolation-filters="sRGB">
<feFlood flood-opacity="0" result="BackgroundImageFix"/>
<feBlend mode="normal" in="SourceGraphic" in2="BackgroundImageFix" result="shape"/>
<feGaussianBlur stdDeviation="5" result="effect1_foregroundBlur_1142_3365"/>
</filter>
<filter id="filter2_bd_1142_3365" x="3.02222" y="10.0221" width="74.9111" height="69.389" filterUnits="userSpaceOnUse" color-interpolation-filters="sRGB">
<feFlood flood-opacity="0" result="BackgroundImageFix"/>
<feGaussianBlur in="BackgroundImage" stdDeviation="1"/>
<feComposite in2="SourceAlpha" operator="in" result="effect1_backgroundBlur_1142_3365"/>
<feColorMatrix in="SourceAlpha" type="matrix" values="0 0 0 0 0 0 0 0 0 0 0 0 0 0 0 0 0 0 127 0" result="hardAlpha"/>
<feOffset dx="2.47778" dy="2.47778"/>
<feGaussianBlur stdDeviation="2.47778"/>
<feColorMatrix type="matrix" values="0 0 0 0 0.15375 0 0 0 0 0.522433 0 0 0 0 0.9 0 0 0 0.5 0"/>
<feBlend mode="normal" in2="effect1_backgroundBlur_1142_3365" result="effect2_dropShadow_1142_3365"/>
<feBlend mode="normal" in="SourceGraphic" in2="effect2_dropShadow_1142_3365" result="shape"/>
</filter>
<linearGradient id="paint0_linear_1142_3365" x1="12.8943" y1="32.6164" x2="67.2401" y2="32.9447" gradientUnits="userSpaceOnUse">
<stop stop-color="white"/>
<stop offset="1" stop-color="white" stop-opacity="0.4"/>
</linearGradient>
</defs>
</svg>
